<?xml version="1.0" encoding="utf-8"?>
<!-- Generator: Adobe Adobe Illustrator 24.2.0, SVG Export Plug-In . SVG Version: 6.00 Build 0)  -->
<svg version="1.1" id="snapp_2_" xmlns="http://www.w3.org/2000/svg" xmlns:xlink="http://www.w3.org/1999/xlink" x="0px" y="0px"
	 viewBox="0 0 3685.54 999.88" style="enable-background:new 0 0 3685.54 999.88;" xml:space="preserve">
<style type="text/css">
	.st0{fill-rule:evenodd;clip-rule:evenodd;fill:#253932;}
</style>
<g id="snapp">
	<g>
		<path class="st0" d="M413.87,368.04l-151.18-24.18c-60.8-9.97-91.19-44.51-91.19-103.61c0-68.3,36.79-102.46,110.39-102.46h249.56
			V115.9l-33.59-24.18H290.29c-115.2,0-172.79,51.06-172.79,153.14c0,83.68,49.99,133.56,149.98,149.68l151.18,24.18
			c57.59,9.22,86.4,48.35,86.4,117.41c0,68.3-36.4,102.44-109.19,102.44H117.5v21.89l33.61,24.18h235.17
			c115.99,0,173.98-51.42,173.98-154.28C560.26,437.5,511.45,383.4,413.87,368.04z M1137.45,91.72H809.9v592.93h53.99V137.79h278.37
			c74.38,0,111.58,35.7,111.58,107.06v439.79h53.99V256.35C1307.84,146.6,1251.03,91.72,1137.45,91.72z M1853.85,91.72h-219.57
			l-33.61,24.18v21.89h257.97c74.4,0,111.6,35.54,111.6,106.63v103.19h-251.97c-115.19,0-172.78,56.18-172.78,168.53
			s57.59,168.51,172.78,168.51h305.96V256.35C2024.24,146.6,1967.43,91.72,1853.85,91.72z M1970.25,638.57h-259.17
			c-74.4,0-111.58-35.81-111.58-107.42v-30.04c0-71.62,37.18-107.42,111.58-107.42h259.17V638.57z M2623.03,91.72h-327.55v822.9
			h53.99V684.64h273.56c113.58,0,170.39-54.87,170.39-164.64V256.35C2793.41,146.6,2736.61,91.72,2623.03,91.72z M2739.42,531.51
			c0,71.38-37.2,107.06-111.58,107.06h-278.37V137.79h278.37c74.38,0,111.58,35.7,111.58,107.06V531.51z M3387.42,91.72h-327.55
			v822.9h53.99V684.64h273.56c113.58,0,170.39-54.87,170.39-164.64V256.35C3557.81,146.6,3501,91.72,3387.42,91.72z M3503.82,531.51
			c0,71.38-37.2,107.06-111.58,107.06h-278.37V137.79h278.37c74.38,0,111.58,35.7,111.58,107.06V531.51z"/>
	</g>
</g>
</svg>
