<svg id="Capa_1" enable-background="new 0 0 512 512" height="512" viewBox="0 0 512 512" width="512" xmlns="http://www.w3.org/2000/svg"><g><g><g clip-rule="evenodd" fill-rule="evenodd"><path d="m234.787 205.915 21.213-21.213 21.213 21.213h85.213c8.249 0 15-6.751 15-15v-68.344c0-8.249-6.75-15-15-15h-212.852c-8.25 0-15 6.75-15 15v68.344c0 8.25 6.751 15 15 15z" fill="#c4e5f9"/><path d="m362.426 107.572v-50.036c0-27.52-22.517-50.036-50.036-50.036h-112.781c-27.518 0-50.036 22.516-50.036 50.036v50.036z" fill="#c8d1da"/><path d="m219.195 299.419h73.61l62.121-62.119v-31.385h-77.713l-21.213-21.213-21.213 21.213h-77.713v31.385z" fill="#fbf2e2"/><path d="m191.138 321.919c38.488 44.503 91.236 44.503 129.724 0v-50.556l-28.057 28.056h-73.609l-28.057-28.056v50.556z" fill="#fbf2e2"/><path d="m94.649 504.5h60v-194.58l-60 5.081zm322.702 0h-60v-194.58l60 5.081z" fill="#faef93"/><path d="m20.87 241.519c-.002 16.5 13.502 30.018 30 30l15-.017.008-148.931h-15c-16.5 0-29.998 13.5-30 30zm395.26 29.95-95.269-.106 34.065-34.063v-31.385h7.5c8.249 0 15-6.75 15-15v-68.344h38.696zm75-29.95c.002 16.5-13.502 30.018-30 30l-15-.017-.008-148.931h15c16.5 0 29.998 13.5 30 30zm-395.261 29.95 95.269-.106-34.064-34.063v-31.385h-7.5c-8.249 0-15-6.75-15-15v-68.344h-38.696z" fill="#faef93"/><path d="m154.649 324.975c28.625 33.099 53.332 61.315 101.351 60.333 48.019.982 72.726-27.234 101.351-60.333l-36.49-3.056c-38.488 44.503-91.236 44.503-129.724 0-3.162.265-36.397 3.16-36.488 3.056z" fill="#92a2b5"/><path d="m491.121 504.5h-73.771v-174.5c43.334 3.63 73.771 34.999 73.771 78.485zm-470.242 0h73.77v-174.5c-43.334 3.63-73.77 34.999-73.77 78.485zm133.77 0h202.702v-179.525c-28.625 33.099-53.331 61.315-101.351 60.334-48.02.982-72.726-27.234-101.351-60.333z" fill="#c8d1da"/><path d="m446.13 271.502-30-.033-.008-148.898h30zm-380.26 0 30-.033.009-148.898h-30z" fill="#c8d1da"/><path d="m320.862 321.919v-50.556l66.489.074v41.023l-30-2.54v15.055c-.091.104-33.326-2.791-36.489-3.056zm-129.724 0v-50.556l-66.489.074v41.023l30-2.54v15.055c.091.104 33.326-2.791 36.489-3.056z" fill="#faef93"/><path d="m172.074 107.572h-22.5c-8.25 0-15 6.75-15 15v68.344c0 8.25 6.751 15 15 15h22.5c-8.249 0-15-6.75-15-15v-68.344c0-8.25 6.75-15 15-15z" fill="#83c8f1"/><path d="m222.109 7.5h-22.5c-27.518 0-50.036 22.516-50.036 50.036v50.036h22.5v-50.036c.001-27.52 22.518-50.036 50.036-50.036z" fill="#92a2b5"/><path d="m219.195 299.419h30l-69.622-69.619v-23.885h-22.499v31.385z" fill="#f6dfb9"/><path d="m191.138 321.919c7.076 8.182 14.636 14.855 22.5 20.029v-48.085l-22.5-22.499z" fill="#f6dfb9"/><path d="m491.121 504.5h-73.771v-22.5h73.771zm-470.242 0h73.77v-22.5h-51.271v-73.514c0-62.219 51.271-78.485 51.271-78.485-43.334 3.63-73.77 34.999-73.77 78.485zm133.77 0h202.702v-22.5h-202.702z" fill="#92a2b5"/><path d="m20.87 241.519c-.002 16.5 13.502 30.018 30 30l15-.017.008-148.931h-.001l-.007 126.432-15 .017c-16.441.018-29.906-13.406-29.998-29.829zm395.26 29.95-95.269-.106 22.476-22.475 72.792.081zm75-29.95c.002 16.5-13.502 30.018-30 30l-15-.017-.008-148.931h.001l.007 126.431 15 .017c16.441.018 29.906-13.406 29.998-29.829zm-395.261 29.95 95.269-.106-22.476-22.475-72.792.081z" fill="#f6e23d"/><path d="m446.13 271.502-30-.033-.008-148.898h.001l.007 126.398 29.998.033zm-380.26 0 30-.033.009-148.898h-.001l-.007 126.398-29.998.033z" fill="#92a2b5"/><path d="m320.862 293.863v-22.5l66.489.074v22.5zm-129.724 0v-22.5l-66.489.074v22.5z" fill="#f6e23d"/><path d="m94.649 504.5h60v-22.5h-60zm322.702 0h-60v-22.5h60z" fill="#f6e23d"/></g><g><path d="m278.5 430.308h-15v-15h15zm-30 0h-15v-15h15zm106.427-285.237h-15v-15h15zm-30.001 0h-15v-15h15z" fill="#fff"/></g></g><g><path d="m424.852 323.349v-15.24l-30-2.54v-26.623l66.271.074h.042c9.959 0 19.348-3.901 26.44-10.986 7.111-7.104 11.027-16.521 11.026-26.515l-.008-88.948c-.002-20.677-16.825-37.499-37.5-37.499h-77.486c-2.263-6.382-7.328-11.446-13.709-13.709v-43.827c-.002-31.725-25.812-57.536-57.537-57.536h-112.782c-31.725 0-57.536 25.811-57.536 57.536v43.826c-6.382 2.264-11.446 7.328-13.709 13.709h-77.486c-20.675 0-37.498 16.822-37.5 37.5l-.003 36.974 15 .001.003-36.974c.001-12.407 10.095-22.501 22.5-22.501h7.5l-.008 133.94-7.508.008c-.008 0-.017 0-.025 0-5.956 0-11.581-2.342-15.84-6.598-4.274-4.27-6.628-9.917-6.627-15.902l.003-36.974-15-.001-.003 36.973c-.001 9.994 3.915 19.411 11.026 26.515 7.093 7.085 16.48 10.986 26.44 10.986h.042l66.271-.074v26.623l-30 2.54v15.24c-20.321 3.05-37.879 11.874-51.077 25.786-14.846 15.651-22.694 36.174-22.694 59.35v103.517h485.243v-60h-15v45h-58.77v-158.458c35.48 6.305 58.77 33.534 58.77 69.943v28.515h15v-28.515c0-23.176-7.847-43.699-22.694-59.35-13.196-13.912-30.755-22.736-51.075-25.786zm-45.001-19.05-30-2.54v15.063l-21.489-1.8v-36.149l51.489.057zm-230.277-90.884v26.992l23.478 23.477-69.681.077.007-133.889h23.697v60.844c-.001 12.406 10.092 22.499 22.499 22.499zm-7.5-90.844c0-4.135 3.364-7.5 7.5-7.5h212.853c4.135 0 7.5 3.364 7.5 7.5v68.344c0 4.135-3.364 7.5-7.5 7.5h-82.107l-24.32-24.319-24.319 24.319h-82.107c-4.135 0-7.5-3.364-7.5-7.5zm113.926-107.571c23.454 0 42.536 19.082 42.536 42.536v42.536h-85.071v-42.536c-.001-23.454 19.081-42.536 42.535-42.536zm128.926 175.916v-60.844h23.696l-.008 133.889-69.665-.077 23.478-23.477v-26.992c12.406 0 22.499-10.093 22.499-22.499zm38.696-60.845h15l-.007 133.923-15-.017zm-259.048 83.344h73.32l18.106-18.106 18.106 18.106h73.32v20.778l-57.728 57.726h-67.396l-57.728-57.726zm34.064 76.054 17.451 17.45h79.822l17.451-17.45v29.606c-17.013 18.801-36.797 28.721-57.362 28.721s-40.348-9.921-57.362-28.721zm-10.602 40.236c19.821 21.662 43.247 33.091 67.964 33.091s48.142-11.429 67.964-33.091l18.003 1.508c-24.154 27.301-46.247 47.439-85.813 46.597l-.154-.003-.153.003c-39.576.814-61.661-19.303-85.813-46.597zm-25.887 15.182c24.158 26.706 50.117 48.776 93.851 47.923.813.016 1.611.023 2.411.023 42.285-.002 67.73-21.739 91.439-47.947v152.114h-187.701zm321.473-192.315.008 88.948c.001 5.984-2.353 11.631-6.627 15.901-4.26 4.255-9.883 6.598-15.84 6.598-.008 0-.017 0-.025 0l-7.524-.008.007-133.939h7.5c12.406-.001 22.499 10.093 22.501 22.5zm-171.231-137.572c23.454 0 42.536 19.082 42.536 42.536v42.536h-41.391v-42.536c0-16.836-7.269-32.005-18.833-42.536zm-112.782 0h17.688c-11.564 10.531-18.833 25.7-18.833 42.536v42.536h-41.391v-42.536c.001-23.454 19.082-42.536 42.536-42.536zm-126.231 115.071h15l-.008 133.906-15 .017zm58.771 148.858 51.489-.057v36.149l-21.489 1.8v-15.063l-30 2.54zm15 39.153v178.918h-45v-175.108zm-118.771 90.403c0-36.409 23.29-63.637 58.771-69.943v158.458h-58.771zm336.473 88.515v-178.918l45 3.811v175.107z"/><path d="m236 228.415h40v15h-40z"/></g></g></svg>