<?xml version="1.0" encoding="utf-8"?>
<!-- Generator: Adobe Adobe Illustrator 24.2.0, SVG Export Plug-In . SVG Version: 6.00 Build 0)  -->
<svg version="1.1" id="Capa_1" xmlns="http://www.w3.org/2000/svg" xmlns:xlink="http://www.w3.org/1999/xlink" x="0px" y="0px"
	 viewBox="0 0 512 512" style="enable-background:new 0 0 512 512;" xml:space="preserve">
<style type="text/css">
	.st0{fill-rule:evenodd;clip-rule:evenodd;fill:#F4F4F4;}
	.st1{fill-rule:evenodd;clip-rule:evenodd;fill:#4F7568;}
	.st2{fill-rule:evenodd;clip-rule:evenodd;fill:#FBF2E2;}
	.st3{fill-rule:evenodd;clip-rule:evenodd;fill:#D6C789;}
	.st4{fill-rule:evenodd;clip-rule:evenodd;fill:#92A2B5;}
	.st5{fill-rule:evenodd;clip-rule:evenodd;fill:#C8D1DA;}
	.st6{fill-rule:evenodd;clip-rule:evenodd;fill:#FAEF93;}
	.st7{fill-rule:evenodd;clip-rule:evenodd;fill:#F6E23D;}
	.st8{fill:#262626;}
	.st9{fill:#4F7568;}
</style>
<g>
	<g>
		<g>
			<path class="st0" d="M234.8,205.9l21.2-21.2l21.2,21.2h85.2c8.2,0,15-6.8,15-15v-68.3c0-8.2-6.8-15-15-15H149.6
				c-8.2,0-15,6.8-15,15v68.3c0,8.2,6.8,15,15,15H234.8z"/>
			<path class="st1" d="M362.4,107.6v-50c0-27.5-22.5-50-50-50H199.6c-27.5,0-50,22.5-50,50v50H362.4z"/>
			<path class="st2" d="M219.2,299.4h73.6l62.1-62.1v-31.4h-77.7L256,184.7l-21.2,21.2h-77.7v31.4L219.2,299.4z"/>
			<path class="st2" d="M191.1,321.9c38.5,44.5,91.2,44.5,129.7,0v-50.6l-28.1,28.1h-73.6l-28.1-28.1L191.1,321.9L191.1,321.9z"/>
			<path class="st3" d="M94.6,504.5h60V309.9l-60,5.1V504.5z M417.4,504.5h-60V309.9l60,5.1V504.5z"/>
			<path class="st3" d="M20.9,241.5c0,16.5,13.5,30,30,30l15,0l0-148.9h-15c-16.5,0-30,13.5-30,30L20.9,241.5z M416.1,271.5
				l-95.3-0.1l34.1-34.1v-31.4h7.5c8.2,0,15-6.8,15-15v-68.3h38.7L416.1,271.5z M491.1,241.5c0,16.5-13.5,30-30,30l-15,0l0-148.9h15
				c16.5,0,30,13.5,30,30L491.1,241.5z M95.9,271.5l95.3-0.1l-34.1-34.1v-31.4h-7.5c-8.2,0-15-6.8-15-15v-68.3H95.9L95.9,271.5z"/>
			<path class="st4" d="M154.6,325c28.6,33.1,53.3,61.3,101.4,60.3c48,1,72.7-27.2,101.4-60.3l-36.5-3.1
				c-38.5,44.5-91.2,44.5-129.7,0C188,322.2,154.7,325.1,154.6,325L154.6,325z"/>
			<path class="st1" d="M491.1,504.5h-73.8V330c43.3,3.6,73.8,35,73.8,78.5V504.5z M20.9,504.5h73.8V330
				c-43.3,3.6-73.8,35-73.8,78.5V504.5z M154.6,504.5h202.7V325c-28.6,33.1-53.3,61.3-101.4,60.3c-48,1-72.7-27.2-101.4-60.3V504.5z
				"/>
			<path class="st5" d="M446.1,271.5l-30,0l0-148.9h30L446.1,271.5z M65.9,271.5l30,0l0-148.9h-30L65.9,271.5z"/>
			<path class="st6" d="M320.9,321.9v-50.6l66.5,0.1v41l-30-2.5V325C357.3,325.1,324,322.2,320.9,321.9z M191.1,321.9v-50.6
				l-66.5,0.1v41l30-2.5V325C154.7,325.1,188,322.2,191.1,321.9z"/>
			<path class="st4" d="M154.6,504.5h202.7"/>
			<path class="st4" d="M446.1,271.5l-30,0l0-148.9h0l0,126.4l30,0L446.1,271.5z M65.9,271.5l30,0l0-148.9h0l0,126.4l-30,0
				L65.9,271.5z"/>
			<path class="st7" d="M417.4,504.5h-60"/>
		</g>
	</g>
	<g>
		<path class="st8" d="M424.9,323.3v-15.2l-30-2.5v-26.6l66.3,0.1h0c10,0,19.3-3.9,26.4-11c7.1-7.1,11-16.5,11-26.5l0-88.9
			c0-20.7-16.8-37.5-37.5-37.5h-77.5c-2.3-6.4-7.3-11.4-13.7-13.7V57.5c0-31.7-25.8-57.5-57.5-57.5H199.6
			c-31.7,0-57.5,25.8-57.5,57.5v43.8c-6.4,2.3-11.4,7.3-13.7,13.7H50.9c-20.7,0-37.5,16.8-37.5,37.5l0,37l15,0l0-37
			c0-12.4,10.1-22.5,22.5-22.5h7.5l0,133.9l-7.5,0c0,0,0,0,0,0c-6,0-11.6-2.3-15.8-6.6c-4.3-4.3-6.6-9.9-6.6-15.9l0-37l-15,0l0,37
			c0,10,3.9,19.4,11,26.5c7.1,7.1,16.5,11,26.4,11h0l66.3-0.1v26.6l-30,2.5v15.2c-20.3,3-37.9,11.9-51.1,25.8
			c-14.8,15.7-22.7,36.2-22.7,59.4V512h485.2v-60h-15v45h-58.8V338.5c35.5,6.3,58.8,33.5,58.8,69.9V437h15v-28.5
			c0-23.2-7.8-43.7-22.7-59.4C462.7,335.2,445.2,326.4,424.9,323.3L424.9,323.3z M149.6,213.4v27l23.5,23.5l-69.7,0.1l0-133.9h23.7
			v60.8C127.1,203.3,137.2,213.4,149.6,213.4L149.6,213.4z M142.1,122.6c0-4.1,3.4-7.5,7.5-7.5h212.9c4.1,0,7.5,3.4,7.5,7.5v68.3
			c0,4.1-3.4,7.5-7.5,7.5h-82.1L256,174.1l-24.3,24.3h-82.1c-4.1,0-7.5-3.4-7.5-7.5L142.1,122.6z M384.9,190.9v-60.8h23.7l0,133.9
			l-69.7-0.1l23.5-23.5v-27C374.8,213.4,384.9,203.3,384.9,190.9z M164.6,213.4h73.3l18.1-18.1l18.1,18.1h73.3v20.8l-57.7,57.7
			h-67.4l-57.7-57.7V213.4z M198.6,289.5l17.5,17.5h79.8l17.5-17.5v29.6c-17,18.8-36.8,28.7-57.4,28.7s-40.3-9.9-57.4-28.7V289.5z
			 M162.1,344.9c24.2,26.7,50.1,48.8,93.9,47.9c0.8,0,1.6,0,2.4,0c42.3,0,67.7-21.7,91.4-47.9V497H162.1V344.9z M483.6,152.6l0,88.9
			c0,6-2.4,11.6-6.6,15.9c-4.3,4.3-9.9,6.6-15.8,6.6c0,0,0,0,0,0l-7.5,0l0-133.9h7.5C473.5,130.1,483.6,140.2,483.6,152.6z
			 M147.1,318.1V497h-45V321.9L147.1,318.1z M28.4,408.5c0-36.4,23.3-63.6,58.8-69.9V497H28.4L28.4,408.5z M364.9,497V318.1l45,3.8
			V497H364.9z"/>
		<path class="st8" d="M236,228.4h40v15h-40V228.4z"/>
	</g>
</g>
<path class="st9" d="M349.6,289.3"/>
</svg>
