<?xml version="1.0" encoding="utf-8"?>
<!-- Generator: Adobe Adobe Illustrator 24.2.0, SVG Export Plug-In . SVG Version: 6.00 Build 0)  -->
<svg version="1.1" id="Capa_1" xmlns="http://www.w3.org/2000/svg" xmlns:xlink="http://www.w3.org/1999/xlink" x="0px" y="0px"
	 viewBox="0 0 512 512" style="enable-background:new 0 0 512 512;" xml:space="preserve">
<style type="text/css">
	.st0{fill-rule:evenodd;clip-rule:evenodd;fill:#D6C789;}
	.st1{fill-rule:evenodd;clip-rule:evenodd;fill:#4F7568;}
	.st2{fill-rule:evenodd;clip-rule:evenodd;fill:#E5ECF5;}
	.st3{fill-rule:evenodd;clip-rule:evenodd;fill:#F0D5B3;}
	.st4{fill-rule:evenodd;clip-rule:evenodd;fill:#B0C5E0;}
	.st5{fill:#262626;}
</style>
<g>
	<g>
		<g>
			<path class="st0" d="M91,489.5c0,8.2,6.8,15,15,15h30v-120v-30c0-8.2,6.8-15,15-15h210c8.2,0,15,6.8,15,15v30v120h30
				c8.2,0,15-6.8,15-15v-300c0-33-27-60-60-60l0,67.5c0,16.5-13.5,30-30,30v45v30h-30v-30v-45h-90v45v30h-30v-30v-45
				c-16.5,0-30-13.5-30-30l0-67.5c-33,0-60,27-60,60L91,489.5z"/>
			<path class="st1" d="M181,227h150c16.5,0,30-13.5,30-30l0-67.5H151l0,67.5C151,213.5,164.5,227,181,227L181,227z"/>
			<path class="st2" d="M91,369.5v-30H16v30H91z M421,369.5h75v-30h-75V369.5z"/>
			<path class="st1" d="M136,384.5h240v120H136V384.5z"/>
			<path class="st1" d="M421,489.5h45c8.2,0,15-6.8,15-15v-105h-60V489.5z M31,339.5h60v-45H46c-8.2,0-15,6.8-15,15V339.5z
				 M31,474.5c0,8.2,6.8,15,15,15h45v-120H31V474.5z M421,339.5h60v-30c0-8.2-6.8-15-15-15h-45V339.5z"/>
			<path class="st2" d="M301,302h30v-75h-30V302z M151,129.5h30V7.5h-30V129.5z M361,129.5h-30V7.5h30V129.5z M181,302h30v-75h-30
				V302z"/>
			<path class="st3" d="M465.9,129.5H361v-107h104.9c8.2,0,15,6.8,15,15v77C480.9,122.7,474.1,129.5,465.9,129.5z M181,129.5h150
				v-107H181L181,129.5z"/>
			<path class="st4" d="M301,249.5h30V227h-30V249.5z M181,249.5h30V227h-30V249.5z"/>
			<path class="st4" d="M16,339.5h22.5v30H16V339.5z"/>
			<path class="st4" d="M173.5,339.5H151c-8.2,0-15,6.8-15,15v30h22.5v-30C158.5,346.2,165.2,339.5,173.5,339.5z"/>
		</g>
	</g>
	<path class="st5" d="M38.6,114.5v-31h-15v31c0,12.4,10.1,22.5,22.5,22.5h62.5c-15.3,12.4-25.1,31.3-25.1,52.5V287H46
		c-12.4,0-22.5,10.1-22.5,22.5V332h-15v45h15v97.5c0,12.4,10.1,22.5,22.5,22.5h38.8c3.1,8.7,11.4,15,21.2,15h300
		c9.8,0,18.1-6.3,21.2-15H466c12.4,0,22.5-10.1,22.5-22.5V437h-15v37.5c0,4.1-3.4,7.5-7.5,7.5h-37.5V377h45v45h15v-45h15v-45h-15
		v-22.5c0-12.4-10.1-22.5-22.5-22.5h-37.5v-97.5c0-21.2-9.8-40.1-25.1-52.5h62.8c12.4,0,22.5-10.1,22.5-22.5v-77
		c0-12.4-10.1-22.5-22.5-22.5h-97.6V0h-45v15h-135V0h-45v15H46.1c-12.4,0-22.5,10.1-22.5,22.5v31h15v-31 M466,302
		c4.1,0,7.5,3.4,7.5,7.5V332h-45v-30H466z M353.5,197c0,12.4-10.1,22.5-22.5,22.5H181c-12.4,0-22.5-10.1-22.5-22.5v-60h195
		L353.5,197z M38.5,309.5c0-4.1,3.4-7.5,7.5-7.5h37.5v30h-45V309.5z M38.5,474.5V377h45v105H46C41.9,482,38.5,478.6,38.5,474.5z
		 M143.5,392h15v22.5h15V392h195v105h-225V392z M413.5,489.5c0,4.1-3.4,7.5-7.5,7.5h-22.5V354.5c0-12.4-10.1-22.5-22.5-22.5H151
		c-12.4,0-22.5,10.1-22.5,22.5V497H106c-4.1,0-7.5-3.4-7.5-7.5v-300c0-26.4,19.6-48.3,45-52V197c0,18.1,12.9,33.3,30,36.7v30.8h-15
		v15h15v30h45v-30h15v-15h-15v-30h75v30h-15v15h15v30h45v-30h15v-15h-15v-30.8c17.1-3.5,30-18.6,30-36.7v-59.5
		c25.4,3.7,45,25.6,45,52L413.5,489.5z"/>
</g>
</svg>
