<svg id="Capa_1" enable-background="new 0 0 512 512" height="512" viewBox="0 0 512 512" width="512" xmlns="http://www.w3.org/2000/svg"><g><g><g clip-rule="evenodd" fill-rule="evenodd"><path d="m91 489.5c0 8.25 6.75 15 15 15h30v-120.001-30c0-8.25 6.75-15 15-15h210c8.25 0 15 6.75 15 15v30 120.001h30c8.25 0 15-6.75 15-15v-300c0-33-27-60-60-60l.001 67.499c0 16.5-13.5 30-30 30v45 30h-30v-30-45h-90.002v45 30h-30v-30-45c-16.5 0-30-13.5-30-30l.001-67.5c-33 0-60 27-60 60z" fill="#f0d5b3"/><path d="m180.999 226.998h150.002c16.5 0 30-13.5 30-30l-.001-67.499h-210l-.001 67.499c0 16.501 13.5 30 30 30z" fill="#ed9c87"/><path d="m91 369.499v-30h-75v30zm330 0h75v-30h-75z" fill="#e5ecf5"/><path d="m136 384.499h240v120.001h-240z" fill="#ed9c87"/><path d="m376 384.499v-30c0-8.25-6.75-15-15-15h-210c-8.25 0-15 6.75-15 15v30z" fill="#e5ecf5"/><path d="m421 489.5h45c8.25 0 15-6.753 15-15v-105.001h-60zm-390-150.001h60v-44.999h-45c-8.247 0-15 6.753-15 15zm0 135.001c0 8.247 6.75 15 15 15h45v-120h-60zm390-135.001h60v-30c0-8.247-6.753-15-15-15h-45z" fill="#f0d5b3"/><path d="m301.001 301.998h30v-75h-30zm-150.001-172.499h30v-121.999h-30zm210 0h-30v-121.999h30zm-180.001 172.499h30v-75h-30z" fill="#e5ecf5"/><path d="m465.882 129.499h-104.882v-106.999h104.881c8.25 0 15 6.75 15 15v77c.001 8.249-6.749 14.999-14.999 14.999zm-419.764 0h104.882v-106.999h-104.882c-8.25 0-15 6.75-15 15v77c0 8.249 6.75 14.999 15 14.999zm134.882 0h150v-106.999h-150z" fill="#f0d5b3"/><path d="m301.001 249.498h30v-22.5h-30zm-150.001-119.999h30v-22.499h-30zm210 0h-30v-22.499h30zm-180.001 119.999h30v-22.5h-30z" fill="#b0c5e0"/><path d="m16 339.499h22.5v30h-22.5z" fill="#b0c5e0"/><path d="m31 339.499h22.5v-30c0-8.247 6.753-15 15-15h-22.5c-8.247 0-15 6.753-15 15zm0 135.001c0 8.247 6.75 15 15 15h22.5c-8.25 0-15-6.753-15-15v-105.001h-22.5z" fill="#dfa357"/><path d="m465.882 129.499h-104.882v-22.499h104.881c8.25 0 15-6.75 15-15v22.5c.001 8.249-6.749 14.999-14.999 14.999zm-412.264-22.499v-69.5c0-8.25 6.75-15 15-15h-22.5c-8.25 0-15 6.75-15 15v77c0 8.25 6.75 15 15 15h104.882v-22.5zm127.382 22.499h150v-22.499h-150z" fill="#dfa357"/><path d="m91 489.5c0 8.25 6.75 15 15 15h22.5c-8.25 0-15-6.75-15-15v-300c0-44.431 37.5-60 37.5-60-33 0-60 27-60 60z" fill="#dfa357"/><path d="m180.999 226.998h22.5c-16.5 0-30-13.5-30-30l.001-67.499h-22.5l-.001 67.499c0 16.501 13.5 30 30 30z" fill="#db380e"/><path d="m136 384.499h22.5v120.001h-22.5z" fill="#db380e"/><path d="m173.499 339.499h-22.499c-8.25 0-15 6.75-15 15v30h22.5v-30c0-8.25 6.75-15 14.999-15z" fill="#b0c5e0"/></g><g><path d="m278.5 166.999h-15v-15h15zm-30 0h-15v-15h15zm210.119-68.499h-15v-15h15zm0-30h-15v-15h15z" fill="#fff"/></g></g><path d="m503.5 332h-15v-22.5c0-12.406-10.094-22.5-22.5-22.5h-37.5v-97.5c0-21.187-9.82-40.116-25.139-52.5h62.757c12.406 0 22.5-10.094 22.5-22.5v-77c0-12.407-10.094-22.5-22.5-22.5h-97.618v-15h-45v15h-135v-15h-45v15h-97.382c-12.406 0-22.5 10.093-22.5 22.5v31h15v-31c0-4.136 3.364-7.5 7.5-7.5h97.382v92h-97.382c-4.136 0-7.5-3.364-7.5-7.5v-31h-15v31c0 12.406 10.094 22.5 22.5 22.5h62.521c-15.319 12.384-25.139 31.312-25.139 52.5v97.5h-37.5c-12.406 0-22.5 10.093-22.5 22.5v22.5h-15v45h15v97.5c0 12.406 10.094 22.5 22.5 22.5h38.79c3.096 8.729 11.433 15 21.21 15h300c9.777 0 18.114-6.271 21.21-15h38.79c12.406 0 22.5-10.093 22.5-22.5v-37.5h-15v37.5c0 4.135-3.364 7.5-7.5 7.5h-37.5v-105h45v45h15v-45.001h15zm-37.5-30c4.136 0 7.5 3.364 7.5 7.5v22.5h-45v-30zm-112.499-105.001c0 12.407-10.094 22.5-22.5 22.5h-150.002c-12.406 0-22.5-10.093-22.5-22.5v-59.999h195.001zm-45 82.5h15v15h-15zm0-15v-30h15v30zm-120.002 15h15v15h-15zm0-15v-30h15v30zm277.619-234.499c4.136 0 7.5 3.364 7.5 7.5v77c0 4.136-3.364 7.5-7.5 7.5h-97.618v-92zm-112.618-15v107h-15v-107zm-30 15v92h-135v-92zm-150-15v107h-15v-107zm-135 294.5c0-4.135 3.364-7.5 7.5-7.5h37.5v30h-45zm-15 37.5h60v15h-60zm15 127.5v-97.501h45v105h-37.5c-4.136.001-7.5-3.364-7.5-7.499zm330-97.501h-225v-22.5c0-4.135 3.364-7.5 7.5-7.5h210c4.136 0 7.5 3.364 7.5 7.5zm-225 15h15v22.5h15v-22.5h195v105.001h-225zm270 97.501c0 4.136-3.364 7.5-7.5 7.5h-22.5v-142.501c0-12.406-10.094-22.5-22.5-22.5h-210c-12.406 0-22.5 10.093-22.5 22.5v142.501h-22.5c-4.136 0-7.5-3.365-7.5-7.5v-300c0-26.402 19.593-48.304 44.999-51.956v59.455c0 18.109 12.904 33.261 30 36.745v30.755h-15v15h15v30h45v-30h15v-15h-15v-30h75.002v30h-15v15h15v30h45v-30h14.999v-15h-14.999v-30.755c17.096-3.484 30-18.636 30-36.745v-59.455c25.407 3.652 44.999 25.554 44.999 51.956zm75-127.501h-60v-15h60z"/></g></svg>