<svg id="Capa_1" enable-background="new 0 0 512 512" height="512" viewBox="0 0 512 512" width="512" xmlns="http://www.w3.org/2000/svg"><g><g><g clip-rule="evenodd" fill-rule="evenodd"><path d="m223.002 452h119.999c16.497 0 30-13.503 30-30v-369.5c0-16.498-13.51-30-30-30h-119.999zm-189.001 0h159.002v-429.5h-174.002v444.5c0-8.25 6.75-15 15-15z" fill="#c4e5f9"/><path d="m34.001 489.5h159.002v-37.5h-159.002c-8.25 0-15 6.75-15 15v7.5c0 8.25 6.75 15 15 15zm189.001 0h119.999c16.498 0 30-13.502 30-30v-37.5c0 16.497-13.503 30-30 30h-119.999z" fill="#e5ecf5"/><path d="m193.003 7.5h30v497h-30z" fill="#ed9c87"/><path d="m492.999 82.499v-44.999c0-8.246-6.75-15-15-15h-30c-8.25 0-15 6.75-15 15v44.999z" fill="#f0d5b3"/><path d="m433 433.251 29.999-7.5 30 7.5v-350.752h-59.999z" fill="#ed9c87"/><path d="m462.999 478.25 30-44.999-30-7.5-29.999 7.5z" fill="#717f98"/><path d="m34.001 452h7.5v-429.5h-22.5v444.5c0-8.25 6.75-15 15-15z" fill="#83c8f1"/><path d="m34.001 489.5h22.5c-8.25 0-15-6.75-15-15v-7.5c0-8.25 6.75-15 15-15h-22.5c-8.25 0-15 6.75-15 15v7.5c0 8.25 6.75 15 15 15z" fill="#b0c5e0"/><path d="m193.003 482h30v22.5h-30z" fill="#db380e"/><path d="m470.499 22.5h-22.499c-8.25 0-15 6.75-15 15v44.999h22.5v-44.999c0-8.25 6.749-15 14.999-15z" fill="#dfa357"/><path d="m433 433.251 22.5-5.625v-345.127h-22.5z" fill="#db380e"/><path d="m462.999 478.25 30-44.999-30-7.5-29.999 7.5z" fill="#f0d5b3"/><path d="m448 455.75 14.999 22.5 15-22.5z" fill="#dfa357"/></g><g><path d="m470.499 134.999h-15v-15h15zm-119.998-44.999h-15v-15h15zm0-30h-15v-15h15z" fill="#fff"/></g></g><g><path d="m343.001 15h-112.499v-15h-44.999v15h-174.002v60h15v-45h159.002v414.5h-151.502c-2.628 0-5.153.453-7.5 1.285v-355.786h-15v384.501c0 12.407 10.094 22.5 22.5 22.5h151.502v15h44.999v-15h112.499c20.678 0 37.5-16.822 37.5-37.5v-407c0-20.678-16.822-37.5-37.5-37.5zm-142.498 0h14.999v429.5h-14.999zm-166.502 467c-4.136 0-7.5-3.364-7.5-7.5v-7.5c0-4.135 3.364-7.5 7.5-7.5h151.502v22.5zm166.502 15v-37.5h14.999v37.5zm164.998-37.5c0 12.407-10.094 22.5-22.5 22.5h-112.499v-22.5h112.499c8.436 0 16.229-2.799 22.5-7.518zm0-37.5c0 12.407-10.094 22.5-22.5 22.5h-112.499v-414.5h112.499c12.406 0 22.5 10.093 22.5 22.5z"/><path d="m500.499 365.751v-328.251c0-12.407-10.094-22.5-22.5-22.5h-29.999c-12.406 0-22.5 10.093-22.5 22.5v398.021l37.499 56.25 37.5-56.249v-54.77h-15v42.894l-15-3.75v-269.897h-15v269.897l-14.999 3.75v-333.646h14.999v15h15v-15h15v275.752h15zm-55.355 72.194 17.855-4.464 17.856 4.464-17.856 26.784zm-4.644-362.945v-37.5c0-4.136 3.364-7.5 7.5-7.5h29.999c4.136 0 7.5 3.364 7.5 7.5v37.5z"/></g></g></svg>