<svg id="Capa_1" enable-background="new 0 0 512.262 512.262" height="512" viewBox="0 0 512.262 512.262" width="512" xmlns="http://www.w3.org/2000/svg"><g><g><g clip-rule="evenodd" fill-rule="evenodd"><path d="m83.097 99.227 98.033 90.533v-37.5l-53.033-53.033v-30h-45z" fill="#e5ecf5"/><path d="m181.13 152.26h150.001v37.5h-150.001z" fill="#e5ecf5"/><path d="m331.131 189.76 98.033-90.533v-30h-45v30l-53.033 53.033z" fill="#e5ecf5"/><path d="m256.131 152.26c25.937 0 46.964-24.193 46.964-54.035 0-29.843-22.762-57.191-46.964-86.456-24.202 29.265-46.964 56.613-46.964 86.456s21.027 54.035 46.964 54.035z" fill="#faef93"/><path d="m211.131 189.76h90v30h-90z" fill="#ed9c87"/><path d="m181.13 249.76h150.001v-30h-150.001zm-104.999 255.002h360v-30h-360z" fill="#e5ecf5"/><path d="m91.131 474.762h330v-135.002c0-49.496-40.5-90-90-90h-150.001c-49.5 0-90 40.5-90 90v135.002z" fill="#ed9c87"/><path d="m211.131 189.76h22.5v30h-22.5z" fill="#db380e"/><path d="m181.13 249.76h22.5v-30h-22.5zm-104.999 255.002h22.5v-30h-22.5z" fill="#b0c5e0"/><path d="m91.131 474.762h22.5v-135.002c0-49.5 40.5-90 90-90h-22.5c-49.5 0-90 40.5-90 90z" fill="#db380e"/><path d="m267.381 150.696c-20.504-5.8-35.714-27.09-35.714-52.471 0-25.14 16.154-48.51 35.714-72.747-3.659-4.533-7.436-9.097-11.25-13.709-24.202 29.265-46.964 56.613-46.964 86.456 0 31.275 25.566 61.705 58.214 52.471z" fill="#f6e23d"/><path d="m181.13 152.26h22.5v37.5h-22.5z" fill="#b0c5e0"/></g><g><path d="m278.631 302.259h-15v-15h15zm-30 0h-15v-15h15z" fill="#fff"/></g></g><path d="m334.065 197.26 102.599-94.75v-25.783h15v-15h-89.999v15h14.999v19.394l-48.639 48.64h-36.32c11.556-11.292 18.889-27.959 18.889-46.536 0-32.368-23.442-60.714-48.262-90.725l-6.201-7.5-6.203 7.501c-9.518 11.509-18.508 22.379-26.293 33.533l12.301 8.585c5.992-8.586 12.872-17.165 20.195-26.07 20.954 25.489 39.464 49.808 39.464 74.675 0 17.653-8.379 33.041-20.693 40.926-12.701-8.091-20.736-23.703-20.736-40.926h-15c0 18.11 7.048 34.977 18.763 46.482-.596.032-1.195.054-1.798.054-21.761 0-39.464-20.875-39.464-46.536 0-11.209 3.764-23.153 11.508-36.515l-12.979-7.521c-9.104 15.709-13.529 30.114-13.529 44.036 0 18.576 7.333 35.243 18.889 46.536h-36.32l-48.639-48.64v-19.393h14.999v-15h-89.998v15h15v25.783l102.599 94.75h25.435v15h-30.002v30.285c-50.27 3.842-89.999 45.976-89.999 97.214v127.502h-15v45h375v-45h-15v-45h-15v45h-315v-127.501c0-45.491 37.009-82.5 82.499-82.5h150.002c45.49 0 82.499 37.009 82.499 82.5v67.502h15v-67.502c0-51.238-39.729-93.372-89.999-97.214v-30.286h-30.001v-15zm94.566 300.002h-345v-15h345zm-36.967-394.929v-25.606h30v19.217l-83.032 76.68v-17.258zm-301.066-25.606h30v25.606l53.032 53.033v17.258l-83.032-76.68zm98.032 105.533v-22.5h135.002v22.5h-15.001-105zm135.002 45v15h-135.002v-15h15.001 105zm-30.001-15h-75v-15h75z"/></g></svg>