<?xml version="1.0" encoding="utf-8"?>
<!-- Generator: Adobe Adobe Illustrator 24.2.0, SVG Export Plug-In . SVG Version: 6.00 Build 0)  -->
<svg version="1.1" id="Capa_1" xmlns="http://www.w3.org/2000/svg" xmlns:xlink="http://www.w3.org/1999/xlink" x="0px" y="0px"
	 viewBox="0 0 512 512" style="enable-background:new 0 0 512 512;" xml:space="preserve">
<style type="text/css">
	.st0{fill-rule:evenodd;clip-rule:evenodd;fill:#F0D5B3;}
	.st1{fill-rule:evenodd;clip-rule:evenodd;fill:#C4E5F9;}
	.st2{fill-rule:evenodd;clip-rule:evenodd;fill:#4F7568;}
	.st3{fill-rule:evenodd;clip-rule:evenodd;fill:#D6C789;}
	.st4{fill-rule:evenodd;clip-rule:evenodd;fill:#ED9C87;}
	.st5{fill:#262626;}
</style>
<g>
	<g>
		<g>
			<path class="st0" d="M222.9,129.9c20.1,7.2,42.5-3.2,49.8-23.3l9.3-25.5h-82.9c-6.5,19.8,3.9,41.5,23.6,48.7L222.9,129.9z
				 M333.8,197.7h28.1c10.3,0,18.8-8.5,18.8-18.8c0-10.3-8.5-18.8-18.8-18.8h-28.1V197.7z"/>
			<path class="st1" d="M199.1,81.1h82.9c7.3-20.1-3.1-42.6-23.3-49.9s-42.6,3.1-49.9,23.3C205.5,63.2,202,72.3,199.1,81.1z"/>
			<path class="st2" d="M116.3,265.7h87.4l43.7-74.8l44.7,6.8h41.8v-37.6h-28.1l-112.2-40.8c-10.3-3.8-21.9,1.7-25.6,12L116.3,265.7
				z"/>
			<path class="st3" d="M116.3,265.7l51.6-134.5c1.5-4.1,4.2-7.4,7.6-9.7l-54.8-4.6L75.9,233.6L116.3,265.7z"/>
			<path class="st2" d="M126.2,423.8l40-95.1c6.4-15.2,21-18,37.5-18h45v32.3h45v-47.3c0-16.5-13.5-30-30-30H116.3
				c-10.1,18.6-26.9,44-5.4,78.3l-32.4,79.8L126.2,423.8L126.2,423.8z"/>
			<path class="st4" d="M66.3,483.2h69.7c0-15-0.3-29.4-22.5-29.4l12.6-30H78.5l-12.2,30V483.2z M248.7,402.9h67.5
				c0-15.7,0-30-22.5-30v-30h-45L248.7,402.9L248.7,402.9z"/>
			<path class="st3" d="M154.9,483.2h349.6V278.4h-71.3l-71.2,124.5H248.7L154.9,483.2z"/>
		</g>
	</g>
	<path class="st5" d="M512,415.7V270.9h-83.2l-59.4,103.8V204.1c10.9-3.2,18.8-13.3,18.8-25.2s-7.9-22-18.8-25.2v-23.6h-15v22.5
		h-47.3l-49.7-18.1c10.4-5.4,18.3-14.3,22.4-25.3l9.3-25.5c4.2-11.6,3.7-24.2-1.6-35.5c-5.3-11.3-14.5-19.8-26.2-24
		c-24.1-8.8-50.8,3.7-59.5,27.8l-7.9,21.7h-24.7v15h20.8c-0.8,7.7,0.4,15.4,3.5,22.7c-6.8-1.7-13.8-0.7-19.6,2.5l-58-4.8L94,165.6
		l14,5.4l17.7-46.1l35.5,3c-0.1,0.2-0.2,0.5-0.3,0.7L113,253.5l-28.1-22.3l17.7-46.2l-14-5.4l-21.7,56.5l39.8,31.5
		c-9.8,17.8-22.9,43.9-4.2,77L58.8,452.3v23.3H0v15h512v-60h-15v45H175.2l76.2-65.2h147.2v-15h-23.8l62.7-109.5H497v129.7L512,415.7
		L512,415.7z M320.1,378.6c-3.5-7-9.9-11.2-18.9-12.6v-70.3c0-20.7-16.8-37.5-37.5-37.5h-46.9l34.6-59.1l40.2,6.1h62.9v190.3h-30.8
		C323.4,389.5,322.6,383.6,320.1,378.6L320.1,378.6z M373.2,178.9c0,6.2-5.1,11.3-11.3,11.3h-20.6v-22.6h20.6
		C368.1,167.6,373.2,172.6,373.2,178.9z M271.2,88.6l-5.6,15.4c-2.9,7.9-8.6,14.1-16.3,17.7c-7.6,3.6-16.2,3.9-24,1.1l0,0
		c-7.8-2.9-14.1-8.6-17.7-16.3c-2.7-5.7-3.5-11.9-2.6-17.9L271.2,88.6L271.2,88.6z M174.9,133.9l0-0.1c2.4-6.5,9.5-9.8,16-7.5
		l113.4,41.3h21.9v22.6h-33.7l-70.4-10.7l-2.3,14.8l15.4,2.3l-36,61.6h-72.2L174.9,133.9z M117.3,340c-17.7-28.3-6.5-48.8,3.5-66.8
		h142.9c12.4,0,22.5,10.1,22.5,22.5v39.8h-30v-32.3h-52.5c-0.1,0-0.2,0-0.3,0c-16.2,0-35.7,2.6-44.1,22.6l-38.1,90.5H89.6l29.7-73
		L117.3,340z M143.4,475.7c-0.3-5.6-1-11.1-3.5-15.9c-3.1-6.2-8.3-10.3-15.6-12.2l48.8-116c4.1-9.6,12.6-13.4,30.4-13.4h0.2h37.5
		v81.3l-89,76.2H143.4z"/>
</g>
</svg>
