<?xml version="1.0" encoding="utf-8"?>
<!-- Generator: Adobe Adobe Illustrator 24.2.0, SVG Export Plug-In . SVG Version: 6.00 Build 0)  -->
<svg version="1.1" id="Capa_1" xmlns="http://www.w3.org/2000/svg" xmlns:xlink="http://www.w3.org/1999/xlink" x="0px" y="0px"
	 viewBox="0 0 512 512" style="enable-background:new 0 0 512 512;" xml:space="preserve">
<style type="text/css">
	.st0{fill-rule:evenodd;clip-rule:evenodd;fill:#4F7568;}
	.st1{fill-rule:evenodd;clip-rule:evenodd;fill:#D6C789;}
	.st2{fill:#4F7568;}
	.st3{fill:#262626;}
</style>
<g>
	<g>
		<g>
			<path class="st0" d="M86.8,139.9C60.3,254.8,146.9,355.5,256,355.5c95.7,0,174-77.5,174-174C430,71.1,327.1-15.3,212,12.9
				C149.8,28.1,101.2,77.4,86.8,139.9z M127,181.5c0-81.8,76.2-145.9,161.5-125c46.2,11.3,82.3,47.9,92.9,94.2
				C401,235.9,336.8,310.5,256,310.5C184.4,310.5,127,252.4,127,181.5z"/>
			<path class="st1" d="M216.7,152.8v-45l39.7,18.8L216.7,152.8z M143.3,244.3l56.2-65.3H234l42.6,57.5l34.9-39.9h22.5l40.1,37.1
				c10.6-24,14.2-51.8,8-80.7c-10.6-49.5-50-88.1-99.7-97.9C199.5,38.8,127,101.7,127,181.5C127,204.3,132.9,225.7,143.3,244.3
				L143.3,244.3z"/>
			<path class="st1" d="M143.3,244.3c22,39.5,64.3,66.2,112.7,66.2c22.9,0,44.5-6,63.1-16.5L234,179h-34.5L143.3,244.3z"/>
			<path class="st1" d="M319.1,294c24.2-13.6,43.5-34.8,54.8-60.3l-40.1-37.1h-22.5l-34.9,39.9L319.1,294z"/>
			<path class="st1" d="M216.7,152.8l39.7-26.2l-39.7-18.8L216.7,152.8z"/>
			<path class="st0" d="M166.5,330.7c36.2,45.5,73.7,99.3,89.5,173.8c15.8-74.5,53.4-128.3,89.6-173.8
				c-26.2,15.8-56.8,24.8-89.6,24.8C223.3,355.5,192.6,346.5,166.5,330.7L166.5,330.7z"/>
		</g>
	</g>
	<g>
		<path class="st2" d="M256,303c-43.7,0-82.1-23.2-103.5-57.9l50.4-58.5h27.3l77.7,104.9C291.8,299,274.2,303,256,303L256,303z
			 M336.8,189.1H308l-31,35.4l-39.3-53.1h-13.5v-14.7l47.5-31.4l-62.5-29.5v75.6H196L145,230.8c-6.7-15.1-10.5-31.8-10.5-49.3
			C134.5,114.5,189,60,256,60s121.5,54.5,121.5,121.5c0,13.4-2.3,26.7-6.5,39.2L336.8,189.1z M224.2,138.8v-19.2l17,8L224.2,138.8z"
			/>
		<path class="st3" d="M256,512c16.1-66.7,59.8-131.7,94.8-175.8l0,0c52-32,86.7-89.4,86.7-154.7C437.5,81.4,363.8,0,256,0
			c-45.6,0-89.1,17-122.7,47.8l10.1,11.1C174.2,30.6,214.2,15,256,15c92.2,0,167.2,75.4,166.5,167.8
			c-0.7,90.6-74.6,164.5-165.2,165.2c-92.4,0.7-167.8-74.3-167.8-166.5c0-41.8,15.6-81.8,43.8-112.5l-11.1-10.1
			c-30.8,33.6-47.8,77.1-47.8,122.7c0,65.4,34.8,122.8,86.8,154.8C196.3,380.3,239.9,445.2,256,512L256,512L256,512L256,512L256,512
			 M256,363c22.7,0,44.4-4.2,64.4-11.8c-25.9,35.1-49.7,74.7-64.4,123.2c-14.7-48.6-38.5-88.1-64.3-123.2
			C211.7,358.8,233.4,363,256,363z"/>
	</g>
</g>
</svg>
