<svg id="Capa_1" enable-background="new 0 0 511.999 511.999" height="512" viewBox="0 0 511.999 511.999" width="512" xmlns="http://www.w3.org/2000/svg"><g><g><g clip-rule="evenodd" fill-rule="evenodd"><path d="m81.999 181.5c0 96.536 78.34 174 174 174 95.661 0 174-77.465 174-174 0-96.098-77.903-174-174-174s-174 77.903-174 174zm45 0c0-71.258 57.742-129 129-129s129 57.742 129 129c0 71.592-58.108 129-129 129-71.615.001-129-58.098-129-129z" fill="#c8d1da"/><path d="m216.721 152.762v-44.999l39.746 18.75zm-73.456 91.502 56.206-65.251h34.5l42.581 57.508 34.855-39.888h22.5l40.075 37.122c7.083-15.973 11.018-33.653 11.018-52.255 0-71.258-57.742-129-129-129s-129 57.742-129 129c-.001 22.786 5.903 44.189 16.265 62.764z" fill="#c4e5f9"/><path d="m143.265 244.264c22.043 39.517 64.262 66.236 112.735 66.236 22.936 0 44.473-5.983 63.134-16.473l-85.162-115.015h-34.5z" fill="#9ce3bf"/><path d="m319.133 294.028c24.18-13.592 43.533-34.753 54.849-60.273l-40.075-37.122h-22.5l-34.855 39.888z" fill="#9ce3bf"/><path d="m216.721 152.762 39.746-26.25-39.746-18.75z" fill="#52cd8d"/><path d="m166.496 330.746c36.186 45.489 73.732 99.254 89.504 173.754 15.772-74.5 53.424-128.329 89.61-173.818-26.174 15.756-56.834 24.819-89.61 24.819-32.732 0-63.353-9.038-89.504-24.755z" fill="#c8d1da"/><path d="m81.999 181.5c0 100.665 84.994 180.042 185.25 173.627-90.475-5.792-162.75-80.905-162.75-173.627 0-92.317 71.897-167.829 162.75-173.628-100.263-6.401-185.25 72.959-185.25 173.628z" fill="#92a2b5"/><path d="m143.265 244.264c2.894 5.189 6.14 10.154 9.698 14.87l69.008-80.121h-22.5z" fill="#52cd8d"/><path d="m333.907 196.632h-22.5l-34.855 39.889 10.338 13.961z" fill="#52cd8d"/><path d="m166.496 330.746c8.993 11.306 18.071 23.123 26.877 35.643 19.433 7.499 40.549 11.611 62.627 11.611 22.104 0 43.245-4.122 62.697-11.639 8.822-12.535 17.913-24.365 26.913-35.679-26.174 15.756-56.834 24.819-89.61 24.819-32.732 0-63.353-9.038-89.504-24.755z" fill="#92a2b5"/></g><g><path d="m324.722 120.278h-15v-15h15zm-30-15h-15v-15h15z" fill="#fff"/></g></g><g><path d="m362.132 267.343c19.582-24.186 30.367-54.672 30.367-85.842.001-75.267-61.233-136.501-136.499-136.501s-136.5 61.234-136.5 136.5 61.233 136.5 136.5 136.5c35.9 0 69.801-13.826 95.456-38.931l-10.49-10.721c-6.122 5.991-12.777 11.253-19.847 15.757l-34.946-47.196 28.641-32.777h16.154l33.853 31.358c-3.932 7.941-8.725 15.472-14.346 22.413zm-106.132 35.657c-43.715 0-82.106-23.21-103.513-57.95l50.423-58.537h27.283l77.679 104.908c-16.028 7.576-33.66 11.579-51.872 11.579zm80.846-113.868h-28.846l-30.965 35.438-39.286-53.057h-13.528v-14.717l47.509-31.376-62.509-29.488v75.582h-13.188l-51.071 59.288c-6.72-15.075-10.463-31.758-10.463-49.301.001-66.996 54.505-121.501 121.501-121.501s121.5 54.505 121.5 121.5c0 13.409-2.262 26.668-6.545 39.226zm-112.625-50.311v-19.228l16.983 8.012z"/><path d="m350.793 336.218c51.973-31.961 86.707-89.356 86.707-154.718 0-100.079-81.421-181.5-181.5-181.5-45.563 0-89.133 16.96-122.687 47.756l10.143 11.051c30.779-28.249 70.748-43.807 112.544-43.807 91.809 0 166.5 74.692 166.5 166.5s-74.692 166.5-166.5 166.5-166.5-74.691-166.5-166.5c0-41.799 15.558-81.768 43.807-112.544l-11.051-10.143c-30.797 33.551-47.756 77.122-47.756 122.687 0 65.408 34.782 122.839 86.817 154.786 34.937 44.006 69.161 93.933 85.279 160.712h-119.625v15h258.057v-15h-119.624c16.109-66.71 50.39-116.696 85.389-160.78zm-94.793 26.782c22.675 0 44.385-4.192 64.414-11.821-25.865 35.13-49.686 74.663-64.412 123.198-14.724-48.576-38.513-88.084-64.338-123.168 20.007 7.611 41.69 11.791 64.336 11.791z"/></g></g></svg>