<svg id="Capa_1" enable-background="new 0 0 512 512" height="512" viewBox="0 0 512 512" width="512" xmlns="http://www.w3.org/2000/svg"><g><g><g clip-rule="evenodd" fill-rule="evenodd"><path d="m49.024 322.205 206.976-57.793v-119.999z" fill="#faef93"/><path d="m256 264.412 206.975 57.793-206.975-177.792z" fill="#faef93"/><path d="m22.5 504.5 134.366.001 11.261-77.606c5.673-39.097 31.517-75.483 87.873-75.483s82.201 36.388 87.873 75.483l11.261 77.606 134.366-.001-26.524-182.295-206.976-57.793-206.976 57.793z" fill="#faef93"/><path d="m156.865 504.5 99.135-153.089c-56.356 0-82.2 36.386-87.873 75.483z" fill="#83c8f1"/><path d="m156.865 504.5h198.269l-99.134-153.089z" fill="#c4e5f9"/><path d="m256 351.411 99.134 153.089-11.261-77.606c-5.673-39.095-31.517-75.483-87.873-75.483z" fill="#717f98"/><path d="m293.499 67.5c0 46.593 50.62 74.753 90 51.971-39.693-22.962-39.693-80.981 0-103.943-9.182-5.312-19.399-8.006-30-8.029-33.162.072-60 26.805-60 60.001z" fill="#c4e5f9"/><path d="m22.5 504.5 134.366.001 3.265-22.5h-111.858l24.203-166.344-23.453 6.549zm329.369-22.5 3.265 22.5h134.366l-3.274-22.5z" fill="#f6e23d"/><path d="m156.865 504.5h198.269l-14.57-22.5h-180.434z" fill="#83c8f1"/><path d="m256 351.411 99.134 153.089-11.261-77.606c-5.673-39.095-31.517-75.483-87.873-75.483z" fill="#83c8f1"/><path d="m49.024 322.205 44.448-12.411 162.528-165.381z" fill="#f6e23d"/><path d="m293.499 67.5c0 39.514 36.405 65.763 71.487 58.935-26.588-5.113-48.987-27.942-48.987-58.935 0-29.361 20.996-53.662 48.793-58.935-36.812-6.989-71.293 21.086-71.293 58.935z" fill="#83c8f1"/></g><g><path d="m278.5 321.412h-15v-15h15zm-30 0h-15v-15h15z" fill="#fff"/></g></g><g><path d="m495.987 497-25.995-178.653-206.492-177.379v-26.555h-15v26.555l-95.186 81.765 9.774 11.378 85.412-73.368v97.977l-168.992 47.186 72.201-62.021-9.773-11.378-99.93 85.839-25.994 178.654h-16.012v15h512v-15zm-63.496-191.094-168.991-47.187v-97.976zm-376.748 22.21 200.257-55.918 200.257 55.917 24.572 168.885h-119.205l-10.33-71.182c-3.324-22.909-12.692-42.505-27.093-56.672-17.021-16.744-39.967-25.234-68.202-25.234s-51.182 8.49-68.203 25.234c-14.4 14.166-23.769 33.763-27.093 56.672l-10.328 71.182h-119.205zm200.257 37.093 85.342 131.791h-170.684zm-86.787 106.425 6.335-43.662c2.771-19.096 14.729-61.474 66.077-68.161zm101.161-111.823c51.348 6.686 63.306 49.065 66.077 68.161l6.336 43.663z"/><path d="m319.706 125.838c10.662 6.149 22.33 9.225 33.972 9.225 11.559 0 23.091-3.033 33.578-9.1l11.222-6.492-11.222-6.492c-16.296-9.427-26.025-26.429-26.025-45.479s9.729-36.052 26.025-45.479l11.222-6.492-11.222-6.492c-10.22-5.912-21.892-9.037-33.756-9.037-37.22 0-67.5 30.28-67.5 67.5 0 24.356 12.6 46.165 33.706 58.338zm33.794-110.838c5.097 0 10.146.74 14.983 2.176-14.126 12.606-22.253 30.618-22.253 50.324 0 19.721 8.139 37.744 22.283 50.351-13.638 4.104-28.416 2.432-41.313-5.006-16.406-9.463-26.2-26.414-26.2-45.345 0-28.949 23.551-52.5 52.5-52.5z"/><path d="m196.001 60h14.999v15h-14.999v15h15v-15h14.999v-15h-15v-15h-15v15h-14.999v15h15z"/><path d="m437 195.412h15v-15h15v-15h-15v-15h-15v15h-15v15h15zm.001-30h14.998v15h-14.998z"/></g></g></svg>