<svg id="Capa_1" enable-background="new 0 0 512 512" height="512" viewBox="0 0 512 512" width="512" xmlns="http://www.w3.org/2000/svg"><g><g><g clip-rule="evenodd" fill-rule="evenodd"><path d="m98.502 172.5h30c8.25 0 15-6.75 15-15v-90c0-8.25 6.75-15 15-15h30c8.25 0 15-6.75 15-15v-15c0-8.25-6.752-15-15-15h-120c-8.247 0-15 6.752-15 15v15c0 8.249 6.75 15 15 15s15 6.75 15 15v90c0 8.25 6.75 15 15 15zm209.997 0h30c8.25 0 15-6.75 15-15v-90c0-8.25 6.75-15 15-15h30c8.25 0 15-6.75 15-15v-15c0-8.25-6.752-15-15-15h-120c-8.247 0-15 6.752-15 15v15c0 8.249 6.75 15 15 15s15 6.75 15 15v90c0 8.25 6.75 15 15 15z" fill="#9ce3bf"/><path d="m128.501 172.5h-30v249.5c0 8.25 6.75 15 15 15s15-6.751 15-15zm209.998 0h-30v249.5c0 8.25 6.75 15 15 15s15-6.751 15-15z" fill="#c8d1da"/><path d="m98.502 172.5h22.5c-8.25 0-15-6.75-15-15v-93.3c-.001-22.776-11.117-34.2-30-34.2v-22.5h-7.5c-8.247 0-15 6.752-15 15v15c0 8.249 6.75 15 15 15s15 6.75 15 15v90c0 8.25 6.75 15 15 15zm209.997 0h22.5c-8.25 0-15-6.75-15-15v-93.3c-.001-22.776-11.117-34.2-30-34.2v-22.5h-7.5c-8.247 0-15 6.752-15 15v15c0 8.249 6.75 15 15 15s15 6.75 15 15v90c0 8.25 6.75 15 15 15z" fill="#52cd8d"/><path d="m128.501 377v-15h-30v15zm209.998 0v-15h-30v15zm0-189.501v-15h-30v15zm-209.998 0v-15h-30v15z" fill="#92a2b5"/></g><g><path d="m330.999 90h-15v-15h15zm-209.998 0h-15v-15h15zm209.998-30h-15v-15h15zm-209.998 0h-15v-15h15z" fill="#fff"/></g></g><g><path d="m218.5 90c-12.56 0-21.214-5.528-22.364-31.336 8.659-3.134 14.864-11.437 14.864-21.164v-15c0-12.406-10.093-22.5-22.5-22.5h-120c-12.407 0-22.5 10.094-22.5 22.5v15c0 12.407 10.093 22.5 22.5 22.5 4.136 0 7.5 3.364 7.5 7.5v37.5h15v-37.5c0-12.406-10.093-22.5-22.5-22.5-4.136 0-7.5-3.364-7.5-7.5v-15c0-4.136 3.364-7.5 7.5-7.5h120c4.135 0 7.5 3.364 7.5 7.5v15c0 4.136-3.364 7.5-7.5 7.5h-30c-12.406 0-22.5 10.094-22.5 22.5v90c0 4.135-3.364 7.5-7.5 7.5h-30c-4.136 0-7.5-3.364-7.5-7.5v-37.5h-15v37.5c0 9.777 6.271 18.114 15 21.209v100.792h-15v15h15v59.999h-15v15h15v52.5c0 9.777 6.27 18.113 15 21.209v31.291h-15v15h15v22.5h15v-22.5h15v-15h-15v-31.291c8.729-3.096 15-11.432 15-21.209v-52.5h15v-15h-15v-59.999h15v-15h-15v-100.792c8.729-3.096 15-11.432 15-21.209v-90c0-4.136 3.364-7.5 7.5-7.5h22.5v112.5c0 20.678 16.822 37.5 37.5 37.5s37.5-16.822 37.5-37.5v-45c0-20.677-16.823-37.5-37.5-37.5zm-97.499 332c0 4.135-3.364 7.5-7.5 7.5-4.135 0-7.5-3.364-7.5-7.5v-52.5h15zm0-67.5h-15v-59.999h15zm-14.999-74.999v-99.501h15v99.502h-15zm134.998-107.001c0 12.407-10.093 22.5-22.5 22.5s-22.5-10.093-22.5-22.5v-74.508c5.358 4.27 12.63 7.008 22.5 7.008 12.406 0 22.5 10.093 22.5 22.5z"/><path d="m428.498 90c-12.56 0-21.214-5.528-22.364-31.336 8.659-3.134 14.864-11.437 14.864-21.164v-15c0-12.406-10.093-22.5-22.5-22.5h-120c-12.407 0-22.5 10.094-22.5 22.5v15c0 12.407 10.093 22.5 22.5 22.5 4.136 0 7.5 3.364 7.5 7.5v37.5h15v-37.5c0-12.406-10.094-22.5-22.5-22.5-4.136 0-7.5-3.364-7.5-7.5v-15c0-4.136 3.364-7.5 7.5-7.5h120c4.135 0 7.5 3.364 7.5 7.5v15c0 4.136-3.364 7.5-7.5 7.5h-30c-12.406 0-22.5 10.094-22.5 22.5v90c0 4.135-3.364 7.5-7.5 7.5h-30c-4.136 0-7.5-3.364-7.5-7.5v-37.5h-15v37.5c0 9.777 6.271 18.114 15 21.209v100.792h-15v15h15v59.999h-15v15h15v52.5c0 9.777 6.271 18.113 15 21.209v31.291h-15v15h15v22.5h15v-22.5h15v-15h-15v-31.291c8.729-3.096 15-11.432 15-21.209v-52.5h15v-15h-15v-59.999h15v-15h-15v-100.792c8.729-3.096 15-11.432 15-21.209v-90c0-4.136 3.364-7.5 7.5-7.5h22.5v112.5c0 20.678 16.822 37.5 37.5 37.5s37.5-16.822 37.5-37.5v-45c0-20.677-16.822-37.5-37.5-37.5zm-97.499 332c0 4.135-3.364 7.5-7.5 7.5s-7.5-3.364-7.5-7.5v-52.5h15zm0-67.5h-15v-59.999h15zm-15-74.999v-99.501h15v99.502h-15zm134.999-107.001c0 12.407-10.093 22.5-22.5 22.5-12.406 0-22.5-10.093-22.5-22.5v-74.508c5.358 4.27 12.63 7.008 22.5 7.008 12.407 0 22.5 10.093 22.5 22.5z"/></g></g></svg>